<svg id="visual" viewBox="0 0 960 540" width="960" height="540" xmlns="http://www.w3.org/2000/svg" xmlns:xlink="http://www.w3.org/1999/xlink" version="1.1"><rect x="0" y="0" width="960" height="540" fill="#ff7f50"></rect><defs><linearGradient id="grad1_0" x1="43.8%" y1="0%" x2="100%" y2="100%"><stop offset="14.444444444444446%" stop-color="#ff7f50" stop-opacity="1"></stop><stop offset="85.55555555555554%" stop-color="#ff7f50" stop-opacity="1"></stop></linearGradient></defs><defs><linearGradient id="grad2_0" x1="0%" y1="0%" x2="56.3%" y2="100%"><stop offset="14.444444444444446%" stop-color="#ff7f50" stop-opacity="1"></stop><stop offset="85.55555555555554%" stop-color="#ff7f50" stop-opacity="1"></stop></linearGradient></defs><g transform="translate(960, 0)"><path d="M0 351C-57.4 335.5 -114.8 320 -169 292.7C-223.2 265.4 -274.2 226.3 -304 175.5C-333.8 124.7 -342.4 62.4 -351 0L0 0Z" fill="#860c0c"></path></g><g transform="translate(0, 540)"><path d="M0 -351C62.5 -342.5 125 -333.9 175.5 -304C226 -274 264.6 -222.7 291.9 -168.5C319.1 -114.3 335.1 -57.1 351 0L0 0Z" fill="#860c0c"></path></g></svg>