<svg id="visual" viewBox="0 0 960 540" width="960" height="540" xmlns="http://www.w3.org/2000/svg" xmlns:xlink="http://www.w3.org/1999/xlink" version="1.1"><rect x="0" y="0" width="960" height="540" fill="#ff7f50"></rect><defs><linearGradient id="grad1_0" x1="43.8%" y1="0%" x2="100%" y2="100%"><stop offset="14.444444444444446%" stop-color="#0a0c3e" stop-opacity="1"></stop><stop offset="85.55555555555554%" stop-color="#0a0c3e" stop-opacity="1"></stop></linearGradient></defs><defs><linearGradient id="grad1_1" x1="43.8%" y1="0%" x2="100%" y2="100%"><stop offset="14.444444444444446%" stop-color="#0a0c3e" stop-opacity="1"></stop><stop offset="85.55555555555554%" stop-color="#ff7f50" stop-opacity="1"></stop></linearGradient></defs><defs><linearGradient id="grad2_0" x1="0%" y1="0%" x2="56.3%" y2="100%"><stop offset="14.444444444444446%" stop-color="#0a0c3e" stop-opacity="1"></stop><stop offset="85.55555555555554%" stop-color="#0a0c3e" stop-opacity="1"></stop></linearGradient></defs><defs><linearGradient id="grad2_1" x1="0%" y1="0%" x2="56.3%" y2="100%"><stop offset="14.444444444444446%" stop-color="#ff7f50" stop-opacity="1"></stop><stop offset="85.55555555555554%" stop-color="#0a0c3e" stop-opacity="1"></stop></linearGradient></defs><g transform="translate(960, 0)"><path d="M0 459C-74.8 438.3 -149.6 417.6 -220.5 381.9C-291.4 346.3 -358.4 295.6 -397.5 229.5C-436.6 163.4 -447.8 81.7 -459 0L0 0Z" fill="#9a2961"></path><path d="M0 229.5C-37.4 219.1 -74.8 208.8 -110.2 191C-145.7 173.1 -179.2 147.8 -198.8 114.8C-218.3 81.7 -223.9 40.8 -229.5 0L0 0Z" fill="#0a0c3e"></path></g><g transform="translate(0, 540)"><path d="M0 -459C80.2 -446.9 160.4 -434.9 229.5 -397.5C298.6 -360.1 356.8 -297.5 393.2 -227C429.6 -156.5 444.3 -78.3 459 0L0 0Z" fill="#9a2961"></path><path d="M0 -229.5C40.1 -223.5 80.2 -217.4 114.7 -198.8C149.3 -180.1 178.4 -148.7 196.6 -113.5C214.8 -78.3 222.1 -39.1 229.5 0L0 0Z" fill="#0a0c3e"></path></g></svg>